<svg width="256" height="256" viewBox="0 0 256 256" fill="none" xmlns="http://www.w3.org/2000/svg">
<circle cx="128" cy="128" r="128" fill="#82E3D9"/>
<path fill-rule="evenodd" clip-rule="evenodd" d="M133.731 194.592C167.96 191.685 194.834 162.981 194.834 128C194.834 91.0884 164.911 61.1656 127.999 61.1656C91.0874 61.1656 61.1646 91.0884 61.1646 128C61.1646 164.274 90.0629 193.799 126.093 194.808V144.806C117.374 143.039 110.811 135.331 110.811 126.091C110.811 115.544 119.36 106.995 129.906 106.995C140.452 106.995 149.002 115.544 149.002 126.091C149.002 135.327 142.444 143.031 133.731 144.803V194.592ZM127.999 202.473C169.129 202.473 202.472 169.13 202.472 128C202.472 86.8699 169.129 53.5273 127.999 53.5273C86.8689 53.5273 53.5264 86.8699 53.5264 128C53.5264 169.13 86.8689 202.473 127.999 202.473ZM129.906 137.548C136.234 137.548 141.363 132.418 141.363 126.091C141.363 119.763 136.234 114.633 129.906 114.633C123.578 114.633 118.449 119.763 118.449 126.091C118.449 132.418 123.578 137.548 129.906 137.548ZM160.467 129.91C164.686 129.91 168.106 126.49 168.106 122.272C168.106 118.054 164.686 114.634 160.467 114.634C156.249 114.634 152.829 118.054 152.829 122.272C152.829 126.49 156.249 129.91 160.467 129.91ZM187.195 114.633C187.195 118.852 183.776 122.272 179.557 122.272C175.339 122.272 171.919 118.852 171.919 114.633C171.919 110.415 175.339 106.995 179.557 106.995C183.776 106.995 187.195 110.415 187.195 114.633ZM99.3549 129.91C95.1365 129.91 91.7167 126.49 91.7167 122.272C91.7167 118.054 95.1365 114.634 99.3549 114.634C103.573 114.634 106.993 118.054 106.993 122.272C106.993 126.49 103.573 129.91 99.3549 129.91ZM72.6191 114.633C72.6191 118.852 76.0388 122.272 80.2573 122.272C84.4758 122.272 87.8955 118.852 87.8955 114.633C87.8955 110.415 84.4758 106.995 80.2573 106.995C76.0388 106.995 72.6191 110.415 72.6191 114.633Z" fill="black"/>
</svg>
