<svg width="256" height="256" viewBox="0 0 256 256" fill="none" xmlns="http://www.w3.org/2000/svg">
<circle cx="128" cy="128" r="128" fill="black"/>
<path fill-rule="evenodd" clip-rule="evenodd" d="M133.733 194.592C167.961 191.684 194.835 162.98 194.835 128C194.835 91.0884 164.912 61.1656 128 61.1656C91.0883 61.1656 61.1655 91.0884 61.1655 128C61.1655 164.275 90.0643 193.8 126.095 194.808V144.806C117.375 143.039 110.812 135.332 110.812 126.091C110.812 115.545 119.361 106.995 129.907 106.995C140.453 106.995 149.003 115.545 149.003 126.091C149.003 135.327 142.446 143.031 133.733 144.803V194.592ZM128 202.473C169.13 202.473 202.473 169.13 202.473 128C202.473 86.8699 169.13 53.5273 128 53.5273C86.8699 53.5273 53.5273 86.8699 53.5273 128C53.5273 169.13 86.8699 202.473 128 202.473ZM129.907 137.548C136.235 137.548 141.365 132.419 141.365 126.091C141.365 119.763 136.235 114.633 129.907 114.633C123.58 114.633 118.45 119.763 118.45 126.091C118.45 132.419 123.58 137.548 129.907 137.548ZM160.469 129.91C164.687 129.91 168.107 126.49 168.107 122.272C168.107 118.053 164.687 114.633 160.469 114.633C156.25 114.633 152.831 118.053 152.831 122.272C152.831 126.49 156.25 129.91 160.469 129.91ZM187.197 114.633C187.197 118.852 183.777 122.272 179.559 122.272C175.34 122.272 171.92 118.852 171.92 114.633C171.92 110.415 175.34 106.995 179.559 106.995C183.777 106.995 187.197 110.415 187.197 114.633ZM99.3566 129.91C95.1381 129.91 91.7183 126.49 91.7183 122.272C91.7183 118.053 95.1381 114.633 99.3566 114.633C103.575 114.633 106.995 118.053 106.995 122.272C106.995 126.49 103.575 129.91 99.3566 129.91ZM72.6202 114.633C72.6202 118.852 76.04 122.272 80.2585 122.272C84.4769 122.272 87.8967 118.852 87.8967 114.633C87.8967 110.415 84.4769 106.995 80.2585 106.995C76.04 106.995 72.6202 110.415 72.6202 114.633Z" fill="white"/>
</svg>
