<svg width="256" height="256" viewBox="0 0 256 256" fill="none" xmlns="http://www.w3.org/2000/svg">
<circle cx="128" cy="128" r="127.5" fill="white" stroke="#EEEEEE"/>
<path fill-rule="evenodd" clip-rule="evenodd" d="M133.731 194.592C167.96 191.685 194.834 162.981 194.834 128C194.834 91.0884 164.911 61.1656 127.999 61.1656C91.0874 61.1656 61.1646 91.0884 61.1646 128C61.1646 164.274 90.0629 193.799 126.093 194.808V144.805C117.374 143.038 110.812 135.331 110.812 126.091C110.812 115.544 119.361 106.995 129.907 106.995C140.453 106.995 149.003 115.544 149.003 126.091C149.003 135.327 142.445 143.032 133.731 144.803V194.592ZM127.999 202.473C169.129 202.473 202.472 169.13 202.472 128C202.472 86.8699 169.129 53.5273 127.999 53.5273C86.8689 53.5273 53.5264 86.8699 53.5264 128C53.5264 169.13 86.8689 202.473 127.999 202.473ZM129.907 137.548C136.235 137.548 141.364 132.418 141.364 126.091C141.364 119.763 136.235 114.633 129.907 114.633C123.579 114.633 118.45 119.763 118.45 126.091C118.45 132.418 123.579 137.548 129.907 137.548ZM160.467 129.909C164.686 129.909 168.106 126.49 168.106 122.271C168.106 118.053 164.686 114.633 160.467 114.633C156.249 114.633 152.829 118.053 152.829 122.271C152.829 126.49 156.249 129.909 160.467 129.909ZM187.195 114.633C187.195 118.852 183.776 122.272 179.557 122.272C175.339 122.272 171.919 118.852 171.919 114.633C171.919 110.415 175.339 106.995 179.557 106.995C183.776 106.995 187.195 110.415 187.195 114.633ZM99.3549 129.909C95.1365 129.909 91.7167 126.49 91.7167 122.271C91.7167 118.053 95.1365 114.633 99.3549 114.633C103.573 114.633 106.993 118.053 106.993 122.271C106.993 126.49 103.573 129.909 99.3549 129.909ZM72.6181 114.633C72.6181 118.852 76.0378 122.272 80.2563 122.272C84.4748 122.272 87.8945 118.852 87.8945 114.633C87.8945 110.415 84.4748 106.995 80.2563 106.995C76.0378 106.995 72.6181 110.415 72.6181 114.633Z" fill="black"/>
</svg>
