<svg width="256" height="256" viewBox="0 0 256 256" fill="none" xmlns="http://www.w3.org/2000/svg">
<path d="M128 0C198.689 0 256 57.3107 256 128C256 198.689 198.687 256 128 256C57.3133 256 0 198.705 0 128C0 57.2954 57.303 0 128 0Z" fill="#627EEA"/>
<path d="M128.238 38L127.031 42.102V161.121L128.238 162.326L183.485 129.669L128.238 38Z" fill="#C0CBF6"/>
<path d="M128.247 38L73 129.669L128.247 162.326V104.557V38Z" fill="white"/>
<path d="M128.239 172.768L127.558 173.598V215.994L128.239 217.981L183.519 140.128L128.239 172.768Z" fill="#C0CBF6"/>
<path d="M128.247 217.981V172.768L73 140.128L128.247 217.981Z" fill="white"/>
<path d="M128.239 162.39L183.485 129.734L128.239 104.622V162.39Z" fill="#8197EE"/>
<path d="M73 129.734L128.247 162.39V104.622L73 129.734Z" fill="#C0CBF6"/>
</svg>
