<svg width="256" height="256" viewBox="0 0 256 256" fill="none" xmlns="http://www.w3.org/2000/svg">
<path d="M4.00004 128.097C4.00004 128.065 4 128.032 4 128L128 128L189.775 235.517C170.998 246.305 149.724 251.987 128.072 252C128.024 252 127.976 252 127.928 252C127.887 252 127.846 252 127.805 252C106.061 251.966 84.7075 246.214 65.8876 235.322C47.0676 224.43 31.4428 208.781 20.5804 189.944C9.73409 171.135 4.01699 149.808 4.00004 128.097Z" fill="white" stroke="#1D2A64" stroke-width="6"/>
<path d="M4.00004 127.903C4.00004 127.935 4 127.968 4 128L128 128L189.775 20.4832C170.998 9.69468 149.724 4.01251 128.072 4C128.024 4 127.976 4 127.928 4C127.887 4 127.846 4.00007 127.805 4.00013C106.061 4.03428 84.7075 9.78584 65.8876 20.6778C47.0676 31.5698 31.4428 47.2192 20.5804 66.0562C9.73409 84.8653 4.01699 106.192 4.00004 127.903Z" fill="#F7F9FB" stroke="#1D2A64" stroke-width="6"/>
<circle r="62" transform="matrix(1 0 0 -1 128 128)" fill="#FAE3EB" stroke="#1D2A64" stroke-width="6"/>
<path d="M128 190C93.7584 190 66 162.242 66 128H128L158.898 181.764C149.802 187.003 139.251 190 128 190Z" fill="#D0ECE3" stroke="#1D2A64" stroke-width="6"/>
<path d="M66 128H128L158.891 74.2319C149.797 68.9953 139.248 66 128 66C93.7583 66 66 93.7583 66 128Z" fill="#DAECFF" stroke="#1D2A64" stroke-width="6"/>
</svg>
